{
  "accessors": [
    {
      "bufferView": 2,
      "componentType": 5126,
      "count": 45893,
      "max": [
        0.91135841608047485,
        1.120366096496582,
        3.516460657119751
      ],
      "min": [
        -1.232174277305603,
        -1.0552440881729126,
        -0.043993864208459854
      ],
      "type": "VEC3"
    },
    {
      "bufferView": 2,
      "byteOffset": 550716,
      "componentType": 5126,
      "count": 45893,
      "max": [
        0.99986833333969116,
        0.99993759393692017,
        0.99999988079071045
      ],
      "min": [
        -0.99991840124130249,
        -0.99982583522796631,
        -0.99975264072418213
      ],
      "type": "VEC3"
    },
    {
      "bufferView": 3,
      "componentType": 5126,
      "count": 45893,
      "max": [
        0.99980688095092773,
        0.99995958805084229,
        0.99992060661315918,
        1
      ],
      "min": [
        -0.99979126453399658,
        -0.99996578693389893,
        -0.99996441602706909,
        -1
      ],
      "type": "VEC4"
    },
    {
      "bufferView": 1,
      "componentType": 5126,
      "count": 45893,
      "max": [
        0.9958459734916687,
        0.99979102611541748
      ],
      "min": [
        0.00066899997182190418,
        0.0039059999398887157
      ],
      "type": "VEC2"
    },
    {
      "bufferView": 0,
      "componentType": 5125,
      "count": 180000,
      "max": [
        45892
      ],
      "min": [
        0
      ],
      "type": "SCALAR"
    }
  ],
  "asset": {
    "extras": {
      "author": "fuinur (https://sketchfab.com/fuinur)",
      "license": "CC-BY-4.0 (http://creativecommons.org/licenses/by/4.0/)",
      "source": "https://sketchfab.com/models/acce0c2e1e5b4986b4ff18198eb90e3e",
      "title": "Flower pot with succulent plants"
    },
    "generator": "Sketchfab-3.29.4-rc3",
    "version": "2.0"
  },
  "bufferViews": [
    {
      "buffer": 0,
      "byteLength": 720000,
      "byteOffset": 0,
      "name": "floatBufferViews",
      "target": 34963
    },
    {
      "buffer": 0,
      "byteLength": 367144,
      "byteOffset": 720000,
      "byteStride": 8,
      "name": "floatBufferViews",
      "target": 34962
    },
    {
      "buffer": 0,
      "byteLength": 1101432,
      "byteOffset": 1087144,
      "byteStride": 12,
      "name": "floatBufferViews",
      "target": 34962
    },
    {
      "buffer": 0,
      "byteLength": 734288,
      "byteOffset": 2188576,
      "byteStride": 16,
      "name": "floatBufferViews",
      "target": 34962
    }
  ],
  "buffers": [
    {
      "byteLength": 2922864,
      "uri": "scene.bin"
    }
  ],
  "images": [
    {
      "uri": "textures/material_baseColor.jpeg"
    }
  ],
  "materials": [
    {
      "doubleSided": true,
      "emissiveFactor": [
        0,
        0,
        0
      ],
      "name": "material",
      "pbrMetallicRoughness": {
        "baseColorFactor": [
          1,
          1,
          1,
          1
        ],
        "baseColorTexture": {
          "index": 0,
          "texCoord": 0
        },
        "metallicFactor": 0,
        "roughnessFactor": 0.59999999999999998
      }
    }
  ],
  "meshes": [
    {
      "primitives": [
        {
          "attributes": {
            "NORMAL": 1,
            "POSITION": 0,
            "TANGENT": 2,
            "TEXCOORD_0": 3
          },
          "indices": 4,
          "material": 0,
          "mode": 4
        }
      ]
    }
  ],
  "nodes": [
    {
      "children": [
        1
      ],
      "name": "RootNode (gltf orientation matrix)",
      "rotation": [
        -0.70710678118654746,
        -0,
        -0,
        0.70710678118654757
      ]
    },
    {
      "children": [
        2
      ],
      "name": "RootNode (model correction matrix)"
    },
    {
      "children": [
        3
      ],
      "name": "Pot.obj.cleaner"
    },
    {
      "mesh": 0,
      "name": ""
    }
  ],
  "samplers": [
    {
      "magFilter": 9729,
      "minFilter": 9987,
      "wrapS": 10497,
      "wrapT": 10497
    }
  ],
  "scene": 0,
  "scenes": [
    {
      "name": "OSG_Scene",
      "nodes": [
        0
      ]
    }
  ],
  "textures": [
    {
      "sampler": 0,
      "source": 0
    }
  ]
}

